<svg xmlns="http://www.w3.org/2000/svg"  viewBox="0 0 50 50" width="50px" height="50px"><path stroke="white" d="M 7.621094 15 C 5.011719 15 2.585938 16.324219 1.277344 18.480469 C 0.167969 20.40625 0 23.390625 0 25 C 0 26.609375 0.164063 29.59375 1.289063 31.542969 C 2.582031 33.675781 5.011719 35 7.621094 35 L 42.378906 35 C 44.992188 35 47.417969 33.675781 48.722656 31.519531 C 49.835938 29.59375 50 26.605469 50 25 C 50 23.390625 49.832031 20.402344 48.710938 18.457031 C 47.414063 16.324219 44.988281 15 42.378906 15 Z M 7.621094 17 L 25 17 L 25 33 L 7.621094 33 C 5.703125 33 3.933594 32.042969 3.007813 30.523438 C 2.097656 28.941406 2 26.132813 2 25 C 2 23.867188 2.097656 21.058594 3 19.496094 C 3.933594 17.957031 5.703125 17 7.621094 17 Z M 10.007813 21 C 6.707031 21 6 21.980469 6 25.007813 C 6 27.945313 6.769531 29 10.007813 29 C 13.875 29 13.984375 27.140625 14 26 L 11.449219 26 C 11.421875 26.835938 10.816406 27 10 27 C 8.492188 27 8.601563 26.460938 8.601563 25.0625 L 8.601563 25 L 14 25 C 14 21.800781 13.089844 21 10.007813 21 Z M 19 21 C 16.679688 21 15 21.050781 15 23.542969 C 15 25.105469 15.566406 25.839844 19 25.839844 C 19.3125 25.839844 19.804688 25.824219 20.09375 25.941406 C 20.359375 26.054688 20.484375 26.28125 20.484375 26.6875 C 20.484375 27.371094 20.222656 27.441406 19 27.441406 C 18.320313 27.441406 17.625 27.429688 17.59375 26.550781 L 15 26.550781 C 15.019531 28.28125 15.878906 28.847656 17.464844 28.96875 C 17.941406 29.003906 18.464844 29 19 29 C 21.1875 29 23 28.652344 23 26.382813 C 23 24.222656 21.820313 24.070313 19 24.011719 C 17.597656 23.980469 17.515625 23.699219 17.515625 23.253906 C 17.515625 22.726563 17.578125 22.558594 19 22.558594 C 19.523438 22.558594 20.042969 22.601563 20.160156 23.222656 L 22.605469 23.222656 L 22.605469 22.90625 C 22.605469 21.027344 20.546875 21 19 21 Z M 33.007813 21 C 36.089844 21 36.996094 21.800781 37 25 L 31.597656 25 L 31.597656 25.0625 C 31.597656 26.460938 31.492188 27 33 27 C 33.816406 27 34.421875 26.835938 34.449219 26 L 37 26 C 36.984375 27.140625 36.875 29 33.007813 29 C 29.769531 29 29 27.945313 29 25.007813 C 29 21.980469 29.707031 21 33.007813 21 Z M 38 21 L 44 21 L 44 23 L 42.21875 23 L 42.21875 29 L 39.78125 29 L 39.78125 23 L 38 23 Z M 9.960938 22.695313 C 10.898438 22.695313 11.402344 22.773438 11.402344 24 L 8.597656 24 C 8.628906 22.949219 8.851563 22.695313 9.960938 22.695313 Z M 32.960938 22.695313 C 31.851563 22.695313 31.628906 22.949219 31.597656 24 L 34.402344 24 C 34.402344 22.773438 33.898438 22.695313 32.960938 22.695313 Z"/></svg>