<svg xmlns="http://www.w3.org/2000/svg"  viewBox="0 0 100 100" width="50px" height="50px"><circle cx="77" cy="13" r="1" fill="#f1bc19"/><circle cx="50" cy="50" r="37" fill="#e4e4f9"/><circle cx="83" cy="15" r="4" fill="#f1bc19"/><circle cx="87" cy="24" r="2" fill="#8889b9"/><circle cx="81" cy="76" r="2" fill="#fbcd59"/><circle cx="15" cy="63" r="4" fill="#fbcd59"/><circle cx="25" cy="87" r="2" fill="#8889b9"/><circle cx="19.5" cy="55.5" r="2.5" fill="#fff"/><circle cx="77.5" cy="30.5" r="1.5" fill="#fff"/><path fill="#cc3354" d="M65.719,73H54.502L73,54.502v11.217C73,69.74,69.74,73,65.719,73z"/><polygon fill="#ee3e54" points="55.226,73 40.728,73 73,40.728 73,55.226"/><path fill="#ed5d40" d="M73,34.281v6.773L41.054,73h-6.773c-2.124,0-4.029-0.915-5.36-2.365l41.714-41.713 C72.085,30.252,73,32.157,73,34.281z"/><path fill="#ee8670" d="M70.806,29.077L29.077,70.806C27.794,69.493,27,67.7,27,65.719v-7.334L58.385,27h7.334 C67.7,27,69.493,27.793,70.806,29.077z"/><polygon fill="#ef9922" points="27,58.711 27,44.213 44.213,27 58.711,27"/><path fill="#f1bc19" d="M34.281,27h10.862L27,45.143V34.281C27,30.26,30.26,27,34.281,27z"/><path fill="#472b29" d="M30.5,40.167c-0.276,0-0.5-0.224-0.5-0.5v-4.333C30,32.393,32.393,30,35.333,30h14 c0.276,0,0.5,0.224,0.5,0.5s-0.224,0.5-0.5,0.5h-14C32.943,31,31,32.944,31,35.333v4.333C31,39.943,30.776,40.167,30.5,40.167z"/><path fill="#472b29" d="M41.583,70h-6.25C32.393,70,30,67.607,30,64.667V44.333c0-0.276,0.224-0.5,0.5-0.5 s0.5,0.224,0.5,0.5v20.333C31,67.056,32.943,69,35.333,69h6.25c0.276,0,0.5,0.224,0.5,0.5S41.859,70,41.583,70z"/><path fill="#472b29" d="M64.667,70h-19.75c-0.276,0-0.5-0.224-0.5-0.5s0.224-0.5,0.5-0.5h19.75 C67.057,69,69,67.056,69,64.667v-5.083c0-0.276,0.224-0.5,0.5-0.5s0.5,0.224,0.5,0.5v5.083C70,67.607,67.607,70,64.667,70z"/><path fill="#472b29" d="M69.5,56.167c-0.276,0-0.5-0.224-0.5-0.5V43.5c0-0.276,0.224-0.5,0.5-0.5s0.5,0.224,0.5,0.5v12.167 C70,55.943,69.776,56.167,69.5,56.167z"/><path fill="#472b29" d="M58.5,31h-6.25c-0.276,0-0.5-0.224-0.5-0.5s0.224-0.5,0.5-0.5h6.25c0.276,0,0.5,0.224,0.5,0.5 S58.776,31,58.5,31z"/><g><path fill="#472b29" d="M65.719,73.7H34.281c-4.401,0-7.981-3.58-7.981-7.981V34.281c0-4.401,3.58-7.981,7.981-7.981h31.438 c4.401,0,7.981,3.58,7.981,7.981v31.438C73.7,70.12,70.12,73.7,65.719,73.7z M34.281,27.7c-3.629,0-6.581,2.952-6.581,6.581v31.438 c0,3.629,2.952,6.581,6.581,6.581h31.438c3.629,0,6.581-2.952,6.581-6.581V34.281c0-3.629-2.952-6.581-6.581-6.581H34.281z"/></g><g><circle cx="50" cy="50" r="15" fill="#fff"/></g><g><path fill="#472b29" d="M50,65.25c-8.409,0-15.25-6.841-15.25-15.25c0-1.739,0.29-3.445,0.863-5.069 c0.046-0.13,0.188-0.198,0.318-0.153c0.13,0.046,0.198,0.189,0.152,0.319C35.53,46.668,35.25,48.318,35.25,50 c0,8.133,6.617,14.75,14.75,14.75S64.75,58.133,64.75,50S58.133,35.25,50,35.25c-2.196,0-4.309,0.471-6.279,1.399 c-0.122,0.059-0.273,0.006-0.333-0.12c-0.059-0.125-0.005-0.274,0.12-0.333c2.038-0.96,4.222-1.447,6.492-1.447 c8.409,0,15.25,6.841,15.25,15.25S58.409,65.25,50,65.25z"/></g><g><path fill="#472b29" d="M36.966,42.82c-0.042,0-0.085-0.011-0.124-0.033c-0.12-0.068-0.161-0.221-0.093-0.341 c1.011-1.769,2.344-3.297,3.962-4.542c0.108-0.084,0.266-0.064,0.351,0.046c0.084,0.109,0.063,0.266-0.046,0.351 c-1.565,1.204-2.854,2.682-3.833,4.393C37.137,42.775,37.053,42.82,36.966,42.82z"/></g><g><circle cx="50" cy="50" r="11" fill="#ee3e54"/></g><g><path fill="#472b29" d="M50,61.25c-6.203,0-11.25-5.047-11.25-11.25c0-2.338,0.711-4.58,2.055-6.482 c0.079-0.113,0.235-0.139,0.349-0.06c0.112,0.08,0.14,0.236,0.06,0.349c-1.284,1.818-1.963,3.96-1.963,6.194 c0,5.928,4.822,10.75,10.75,10.75S60.75,55.928,60.75,50S55.928,39.25,50,39.25c-2.465,0-4.782,0.811-6.702,2.345 c-0.107,0.086-0.264,0.069-0.352-0.039c-0.086-0.108-0.068-0.265,0.039-0.351c1.981-1.583,4.473-2.454,7.015-2.454 c6.203,0,11.25,5.047,11.25,11.25S56.203,61.25,50,61.25z"/></g><g><circle cx="50" cy="50" r="7" fill="#836f61"/><path fill="#472b29" d="M50,57.25c-3.998,0-7.25-3.252-7.25-7.25s3.252-7.25,7.25-7.25s7.25,3.252,7.25,7.25 S53.998,57.25,50,57.25z M50,43.25c-3.722,0-6.75,3.028-6.75,6.75s3.028,6.75,6.75,6.75s6.75-3.028,6.75-6.75 S53.722,43.25,50,43.25z"/></g><g><circle cx="50" cy="50" r="4" fill="#1f212b"/></g><g><ellipse cx="50" cy="46.5" fill="#cbc9bc" rx="3" ry="1.5"/><path fill="#472b29" d="M50,48.25c-1.822,0-3.25-0.769-3.25-1.75s1.428-1.75,3.25-1.75s3.25,0.769,3.25,1.75 S51.822,48.25,50,48.25z M50,45.25c-1.621,0-2.75,0.659-2.75,1.25s1.129,1.25,2.75,1.25s2.75-0.659,2.75-1.25 S51.621,45.25,50,45.25z"/></g><g><polygon fill="#fff" points="35.777,60.553 36.637,62.916 39,63.777 36.637,64.637 35.777,67 34.916,64.637 32.553,63.777 34.916,62.916"/><path fill="#472b29" d="M35.776,67.25c-0.105,0-0.199-0.066-0.235-0.164l-0.82-2.254l-2.254-0.821 c-0.099-0.036-0.164-0.13-0.164-0.235s0.065-0.199,0.164-0.235l2.254-0.821l0.82-2.254c0.072-0.198,0.398-0.198,0.471,0l0.82,2.254 l2.254,0.821c0.099,0.036,0.164,0.13,0.164,0.235s-0.065,0.199-0.164,0.235l-2.254,0.821l-0.82,2.254 C35.976,67.184,35.882,67.25,35.776,67.25z M33.283,63.776l1.719,0.626c0.069,0.025,0.124,0.08,0.149,0.149l0.625,1.718 l0.625-1.718c0.025-0.069,0.08-0.124,0.149-0.149l1.719-0.626l-1.719-0.625c-0.069-0.025-0.124-0.08-0.149-0.149l-0.625-1.718 l-0.625,1.718c-0.025,0.069-0.08,0.124-0.149,0.149L33.283,63.776z"/></g><g><polygon fill="#fff" points="64.777,29 65.904,32.096 69,33.223 65.904,34.351 64.777,37.447 63.649,34.351 60.553,33.223 63.649,32.096"/><path fill="#472b29" d="M64.776,37.697L64.776,37.697c-0.105,0-0.199-0.066-0.235-0.165l-1.087-2.986l-2.987-1.088 c-0.099-0.036-0.164-0.13-0.164-0.235s0.065-0.199,0.164-0.235l2.987-1.088l1.087-2.987c0.072-0.197,0.398-0.198,0.471,0 l1.088,2.987l2.986,1.088c0.099,0.036,0.164,0.13,0.164,0.235s-0.065,0.199-0.164,0.235L66.1,34.546l-1.088,2.987 C64.976,37.631,64.882,37.697,64.776,37.697z M61.283,33.224l2.452,0.892c0.069,0.025,0.124,0.08,0.149,0.149l0.892,2.451 l0.893-2.451c0.025-0.069,0.08-0.124,0.149-0.149l2.451-0.892l-2.451-0.893c-0.069-0.025-0.124-0.08-0.149-0.149l-0.893-2.451 l-0.892,2.451c-0.025,0.069-0.08,0.124-0.149,0.149L61.283,33.224z"/></g><g><polygon fill="#fff" points="68.5,36 69.167,37.833 71,38.5 69.167,39.167 68.5,41 67.833,39.167 66,38.5 67.833,37.833"/><path fill="#472b29" d="M68.5,41.25c-0.105,0-0.199-0.066-0.235-0.165l-0.627-1.723l-1.724-0.628 c-0.099-0.036-0.164-0.13-0.164-0.235s0.065-0.199,0.164-0.235l1.724-0.628l0.627-1.723c0.072-0.198,0.398-0.198,0.471,0 l0.627,1.723l1.724,0.628c0.099,0.036,0.164,0.13,0.164,0.235s-0.065,0.199-0.164,0.235l-1.724,0.628l-0.627,1.723 C68.699,41.184,68.605,41.25,68.5,41.25z M66.73,38.5l1.188,0.432c0.069,0.025,0.124,0.08,0.149,0.149l0.432,1.187l0.432-1.187 c0.025-0.069,0.08-0.124,0.149-0.149L70.27,38.5l-1.188-0.432c-0.069-0.025-0.124-0.08-0.149-0.149L68.5,36.731l-0.432,1.187 c-0.025,0.069-0.08,0.124-0.149,0.149L66.73,38.5z"/></g></svg>