<svg xmlns="http://www.w3.org/2000/svg"  viewBox="0 0 64 64" width="64px" height="64px" fill-rule="evenodd" clip-rule="evenodd"><rect width="64" height="64" fill="none"/><path fill="url(#_Linear1)" d="M7,38.231c4.977,-1.461 10.27,-1.251 16,1.269c0,0 6.5,-4 12,-4c7,0 14,2 14,2c-10.531,-0.278 -18.925,3.208 -25,10.781c-4.198,-4.061 -9.25,-6.063 -15.249,-5.781l-1.751,-4.269Z"/><path fill="url(#_Linear2)" d="M32,4c-14.902,0 -27,12.098 -27,27c-0,14.902 12.098,27 27,27c14.902,0 27,-12.098 27,-27c-0,-14.902 -12.098,-27 -27,-27Zm-0,2c13.798,-0 25,11.202 25,25c-0,13.798 -11.202,25 -25,25c-13.798,0 -25,-11.202 -25,-25c-0,-13.798 11.202,-25 25,-25Z"/><path fill="url(#_Linear3)" d="M20.5,20.283c7.5,-1.283 10.844,0.004 13.732,4.054c5.268,-4.523 7.768,-5.337 14.768,-4.337c0,-0 -3,-2.5 -7,-2.5c-4,-0 -7.5,2.5 -7.5,2.5c0,-0 -2.188,-2.5 -6.5,-2.5c-4.5,-0 -7.5,2.783 -7.5,2.783Z"/><defs><linearGradient id="_Linear1" x1="0" x2="1" y1="0" y2="0" gradientTransform="matrix(-13 40 -40 -13 39 16)" gradientUnits="userSpaceOnUse"><stop offset="0" stop-color="#67c6ff"/><stop offset="1" stop-color="#e9a7ff"/></linearGradient><linearGradient id="_Linear2" x1="0" x2="1" y1="0" y2="0" gradientTransform="matrix(0 54.1605 -54.1605 0 32 3.333)" gradientUnits="userSpaceOnUse"><stop offset="0" stop-color="#1c65ff"/><stop offset="1" stop-color="#cd00ff"/></linearGradient><linearGradient id="_Linear3" x1="0" x2="1" y1="0" y2="0" gradientTransform="matrix(-13 40 -40 -13 39 16)" gradientUnits="userSpaceOnUse"><stop offset="0" stop-color="#67c6ff"/><stop offset="1" stop-color="#e9a7ff"/></linearGradient></defs></svg>