<svg xmlns="http://www.w3.org/2000/svg"  viewBox="0 0 64 64" width="64px" height="64px" baseProfile="basic"><linearGradient id="q4Wr9w0hfwk81CqdK2RFUa" x1="32" x2="32" y1="58" y2="6" gradientUnits="userSpaceOnUse"><stop offset="0" stop-color="#c822ff"/><stop offset="1" stop-color="#1a6dff"/></linearGradient><path fill="url(#q4Wr9w0hfwk81CqdK2RFUa)" d="M58,26.348C58,15.11,49.903,6,39.913,6c0,0-0.001,0-0.002,0c-2.123,0-4.226,0.416-6.189,1.223	C31.364,6.414,28.889,6,26.396,6v2c2.278,0,4.525,0.375,6.677,1.115c6.909,2.384,11.472,8.129,11.623,14.59v0.382	c0,2.275-0.527,4.466-1.547,6.487c-0.847-2.831-2.203-5.451-4.018-7.73c-0.673-0.849-1.418-1.653-2.215-2.392	c-3.592-3.32-8.148-5.148-12.829-5.148l-0.43,0.001c-6.305,0.152-12.018,3.518-15.656,8.939C8,24.191,8,24.139,8,24.087	C8,15.217,16.231,8,26.352,8l0.044-2c-0.016,0-0.032,0-0.048,0C15.11,6,6,14.097,6,24.087c0,2.124,0.415,4.227,1.223,6.191	C6.408,32.651,5.995,35.143,6,37.652C6,48.89,14.097,58,24.087,58c0.001,0,0.001,0,0.002,0c2.123,0,4.226-0.416,6.189-1.223	C32.636,57.586,35.111,58,37.604,58c0.016,0,0.032,0,0.048,0C48.89,58,58,49.903,58,39.913c0-2.124-0.415-4.227-1.223-6.191	C57.592,31.349,58.005,28.857,58,26.348z M39.911,8h0.002c1.367,0,2.694,0.195,3.962,0.563C50.836,10.581,56,17.79,56,26.352	c0.005,2.293-0.37,4.555-1.115,6.721c-2.384,6.909-8.129,11.472-14.59,11.623h-0.382c-2.235,0-4.44-0.537-6.466-1.552	c3.912-1.171,7.399-3.304,10.1-6.228c3.32-3.592,5.148-8.148,5.148-12.829l-0.001-0.43c-0.152-6.305-3.518-12.018-8.939-15.656	C36.375,8.125,39.86,8,39.911,8z M35.559,21.921c0.723,0.67,1.393,1.394,2.005,2.166c2.477,3.111,4.115,7.084,4.515,11.471	c0,0,0,0,0,0c-3.316,3.588-8.154,6.022-13.638,6.52c-3.588-3.316-6.022-8.154-6.52-13.638C25.237,24.853,30.075,22.42,35.559,21.921	C35.168,21.56,35.168,21.56,35.559,21.921z M24.087,56C15.217,56,8,47.769,8,37.648c-0.005-2.293,0.37-4.555,1.115-6.721	c2.384-6.909,8.129-11.472,14.59-11.623h0.382c2.235,0,4.44,0.537,6.466,1.552c-3.912,1.171-7.399,3.304-10.1,6.228	c-3.32,3.592-5.148,8.148-5.148,12.829l0.001,0.43c0.152,6.305,3.518,12.018,8.939,15.656C24.191,56,24.139,56,24.087,56z M37.604,56c-2.278,0-4.525-0.375-6.677-1.115c-6.909-2.384-11.472-8.129-11.623-14.59v-0.382c0-2.235,0.537-4.44,1.552-6.466	c1.171,3.912,3.304,7.399,6.228,10.1c3.592,3.32,8.148,5.148,12.829,5.148l0.43-0.001c6.305-0.152,12.018-3.518,15.656-8.939	C56,39.809,56,39.861,56,39.913C56,48.783,47.769,56,37.604,56z"/><linearGradient id="q4Wr9w0hfwk81CqdK2RFUb" x1="36.583" x2="36.583" y1="54" y2="39.499" gradientUnits="userSpaceOnUse"><stop offset="0" stop-color="#e6abff"/><stop offset="1" stop-color="#6dc7ff"/></linearGradient><path fill="url(#q4Wr9w0hfwk81CqdK2RFUb)" d="M37.604,54c-2.057,0-4.084-0.339-6.025-1.007c-6.108-2.106-10.142-7.109-10.274-12.745	c0,0,0.003-0.611,0.008-0.749c1.2,2.058,2.686,3.919,4.415,5.518c3.963,3.662,9.001,5.679,14.187,5.679h0.431	c4.19-0.101,8.145-1.445,11.518-3.83C49.037,51.123,43.704,54,37.604,54z"/><linearGradient id="q4Wr9w0hfwk81CqdK2RFUc" x1="37.042" x2="7.002" y1="42.018" y2="43.883" gradientTransform="rotate(93.555 22.923 37.61)" gradientUnits="userSpaceOnUse"><stop offset="0" stop-color="#e6abff"/><stop offset="1" stop-color="#6dc7ff"/></linearGradient><path fill="url(#q4Wr9w0hfwk81CqdK2RFUc)" d="M9.928,36.758c0.127-2.053,0.591-4.055,1.378-5.951c2.481-5.966,7.724-9.682,13.357-9.465	c0,0,0.61,0.041,0.747,0.054c-2.128,1.07-4.078,2.438-5.781,4.065c-3.901,3.728-6.225,8.632-6.547,13.807l-0.027,0.43	c-0.159,4.189,0.938,8.218,3.109,11.733C12.091,48.348,9.55,42.847,9.928,36.758z"/><linearGradient id="q4Wr9w0hfwk81CqdK2RFUd" x1="32.009" x2="62.996" y1="22.19" y2="25.762" gradientTransform="rotate(-96.575 48.756 24.926)" gradientUnits="userSpaceOnUse"><stop offset="0" stop-color="#e6abff"/><stop offset="1" stop-color="#6dc7ff"/></linearGradient><path fill="url(#q4Wr9w0hfwk81CqdK2RFUd)" d="M54.165,24.03c0.236,2.043,0.131,4.096-0.31,6.101C52.462,36.44,47.953,41.02,42.37,41.797	c0,0-0.608,0.067-0.745,0.078c1.907-1.428,3.586-3.117,4.976-5.018c3.184-4.356,4.611-9.592,4.017-14.744l-0.049-0.428	c-0.58-4.151-2.368-7.925-5.124-11.003C49.998,13.001,53.466,17.969,54.165,24.03z"/><linearGradient id="q4Wr9w0hfwk81CqdK2RFUe" x1="59.951" x2="60.869" y1="-2.486" y2="12.963" gradientTransform="scale(-1) rotate(3.4 399.184 -1494.604)" gradientUnits="userSpaceOnUse"><stop offset="0" stop-color="#e6abff"/><stop offset="1" stop-color="#6dc7ff"/></linearGradient><path fill="url(#q4Wr9w0hfwk81CqdK2RFUe)" d="M27.531,9.784c2.053,0.122,4.057,0.581,5.955,1.363c5.973,2.465,9.702,7.699,9.5,13.332	c0,0-0.039,0.61-0.052,0.747c-1.076-2.125-2.448-4.071-4.08-5.77c-3.739-3.891-8.648-6.203-13.825-6.51L24.6,12.92	c-4.189-0.148-8.216,0.96-11.725,3.14C15.947,11.978,21.441,9.422,27.531,9.784z"/></svg>