<svg xmlns="http://www.w3.org/2000/svg"  viewBox="0 0 100 100" width="50px" height="50px"><circle cx="77" cy="13" r="1" fill="#f1bc19"/><circle cx="50" cy="50" r="37" fill="#e6edb7"/><circle cx="83" cy="15" r="4" fill="#f1bc19"/><circle cx="87" cy="24" r="2" fill="#88ae45"/><circle cx="81" cy="76" r="2" fill="#fbcd59"/><circle cx="15" cy="63" r="4" fill="#fbcd59"/><circle cx="25" cy="87" r="2" fill="#88ae45"/><circle cx="18.5" cy="51.5" r="2.5" fill="#fff"/><circle cx="79.5" cy="33.5" r="1.5" fill="#fff"/><path fill="#fc5672" d="M75.672,34.422L50,24L24.328,34.422v0.238C24.328,52.2,34.278,68.223,50,76h0 c15.722-7.777,25.672-23.8,25.672-41.34V34.422"/><path fill="#d82745" d="M50,24v52l0,0c15.722-7.777,25.672-23.8,25.672-41.34v-0.238L50,24z"/><path fill="#472b29" d="M50,76.7c-0.106,0-0.213-0.024-0.311-0.073C33.614,68.675,23.628,52.594,23.628,34.66v-0.238 c0-0.285,0.173-0.542,0.437-0.648l25.672-10.422c0.17-0.069,0.357-0.069,0.527,0l25.672,10.422 c0.264,0.107,0.437,0.363,0.437,0.648v0.238c0,17.934-9.986,34.015-26.062,41.967C50.213,76.676,50.106,76.7,50,76.7z M25.028,34.894C25.114,52.082,34.656,67.485,50,75.218c15.344-7.732,24.886-23.136,24.972-40.324L50,24.755L25.028,34.894z"/><path fill="#472b29" d="M50,76.147c-0.138,0-0.25-0.112-0.25-0.25V60.5c0-0.138,0.112-0.25,0.25-0.25s0.25,0.112,0.25,0.25 v15.397C50.25,76.035,50.138,76.147,50,76.147z"/><g><path fill="#472b29" d="M50,40.75c-0.138,0-0.25-0.112-0.25-0.25v-3.494c0-0.138,0.112-0.25,0.25-0.25s0.25,0.112,0.25,0.25 V40.5C50.25,40.638,50.138,40.75,50,40.75z"/></g><g><path fill="#472b29" d="M50,34.937c-0.138,0-0.25-0.112-0.25-0.25V24.103c0-0.138,0.112-0.25,0.25-0.25 s0.25,0.112,0.25,0.25v10.584C50.25,34.825,50.138,34.937,50,34.937z"/></g><g><path fill="#fff" d="M56.683,47.183c0-3.691-2.992-6.683-6.683-6.683s-6.683,2.992-6.683,6.683 c0,2.406,1.275,4.508,3.183,5.685V60.5h7v-7.633C55.407,51.691,56.683,49.588,56.683,47.183z"/><path fill="#472b29" d="M53.5,61h-7c-0.276,0-0.5-0.224-0.5-0.5v-7.36c-1.998-1.34-3.183-3.547-3.183-5.958 C42.817,43.222,46.039,40,50,40s7.183,3.222,7.183,7.183c0,2.411-1.185,4.617-3.183,5.958v7.36C54,60.776,53.776,61,53.5,61z M47,60h6v-7.133c0-0.173,0.09-0.334,0.237-0.425c1.845-1.138,2.945-3.104,2.945-5.259C56.183,43.773,53.409,41,50,41 s-6.183,2.773-6.183,6.183c0,2.155,1.101,4.121,2.945,5.259C46.91,52.533,47,52.694,47,52.867V60z"/></g><g><path fill="#472b29" d="M50,76.7c-0.106,0-0.213-0.024-0.311-0.073C33.614,68.675,23.628,52.594,23.628,34.66v-0.238 c0-0.285,0.173-0.542,0.437-0.648l25.672-10.422c0.17-0.069,0.357-0.069,0.527,0l25.672,10.422 c0.264,0.107,0.437,0.363,0.437,0.648v0.238c0,17.934-9.986,34.015-26.062,41.967C50.213,76.676,50.106,76.7,50,76.7z M25.028,34.894C25.114,52.082,34.656,67.485,50,75.218c15.344-7.732,24.886-23.136,24.972-40.324L50,24.755L25.028,34.894z"/></g><g><path fill="#472b29" d="M60.969,64.748c-0.123,0-0.247-0.045-0.344-0.137c-0.2-0.19-0.209-0.506-0.02-0.707 c6.945-7.34,11.027-16.969,11.517-27.146l-22.017-8.938c-0.256-0.104-0.379-0.396-0.274-0.651c0.103-0.256,0.396-0.378,0.651-0.275 l22.343,9.07c0.195,0.08,0.319,0.272,0.312,0.483c-0.422,10.548-4.613,20.543-11.805,28.144 C61.233,64.695,61.102,64.748,60.969,64.748z"/></g><g><path fill="#472b29" d="M56.46,68.878c-0.147,0-0.293-0.065-0.392-0.189c-0.172-0.216-0.136-0.531,0.081-0.703 c0.841-0.666,1.665-1.373,2.45-2.099c0.203-0.188,0.52-0.175,0.707,0.027c0.188,0.203,0.175,0.519-0.027,0.707 c-0.804,0.744-1.647,1.467-2.509,2.15C56.679,68.843,56.569,68.878,56.46,68.878z"/></g><g><path fill="#472b29" d="M49.696,72.96c-0.08,0-0.161-0.019-0.236-0.06c-13.527-7.27-21.975-20.897-22.597-36.453 c-0.008-0.211,0.116-0.404,0.312-0.483l16.548-6.718c0.255-0.104,0.548,0.019,0.651,0.275c0.104,0.256-0.019,0.547-0.274,0.651 l-16.222,6.585c0.72,15.053,8.944,28.216,22.055,35.262c0.243,0.131,0.335,0.434,0.204,0.677 C50.047,72.865,49.874,72.96,49.696,72.96z"/></g><g><path fill="#472b29" d="M45.936,29.388c-0.197,0-0.385-0.118-0.463-0.312c-0.104-0.256,0.019-0.548,0.274-0.652l1.21-0.492 c0.254-0.104,0.548,0.02,0.651,0.275c0.104,0.256-0.019,0.548-0.274,0.652l-1.21,0.492C46.063,29.376,45.998,29.388,45.936,29.388z"/></g></svg>