<?xml version="1.0" encoding="utf-8"?>
<!-- Generator: Adobe Illustrator 26.0.1, SVG Export Plug-In . SVG Version: 6.00 Build 0)  -->
<svg version="1.1" id="Layer_1" xmlns="http://www.w3.org/2000/svg" xmlns:xlink="http://www.w3.org/1999/xlink" x="0px" y="0px"
	 viewBox="0 0 800 800" style="enable-background:new 0 0 800 800;" xml:space="preserve">
<style type="text/css">
	.st0{fill:#FFFFFF;}
</style>
<g>
	<path class="st0" d="M401.4,729.8l-111.9-66.5c-45.3-27-83.1-65.4-109.2-111.3c-26.1-45.8-39.9-98-39.9-150.7V197.3
		c-0.1-12.7,7.5-24.1,19.4-29l229.7-95.7c7.4-3.1,15.5-3.2,23-0.4l226.6,84c12.2,4.6,20.4,16.4,20.4,29.4v216.8
		c0,52.5-13.7,104.3-39.5,150c-25.8,45.7-63.3,84.1-108.2,111.1L401.4,729.8z M178,201.4l0,200c0,93.8,50.1,181.8,130.7,229.8
		l92.6,55l91.1-54.8c79.9-48,129.5-135.7,129.5-228.9V189.8l-220.3-81.7L178,201.4z M174.3,202.9L174.3,202.9
		C174.2,202.9,174.3,202.9,174.3,202.9z M178,197.2L178,197.2C178,197.2,178,197.2,178,197.2z M622,185.5
		C622,185.5,622,185.5,622,185.5L622,185.5z"/>
</g>
<g>
	<polygon class="st0" points="372.1,515.6 263.8,433.7 286.4,403.8 363.9,462.4 516.7,247.8 547.3,269.5 	"/>
</g>
</svg>
