<?xml version="1.0" encoding="utf-8"?>
<!-- Generator: Adobe Illustrator 26.0.1, SVG Export Plug-In . SVG Version: 6.00 Build 0)  -->
<svg version="1.1" id="Layer_1" xmlns="http://www.w3.org/2000/svg" xmlns:xlink="http://www.w3.org/1999/xlink" x="0px" y="0px"
	 viewBox="0 0 800 800" style="enable-background:new 0 0 800 800;" xml:space="preserve">
<style type="text/css">
	.st0{fill:#FFFFFF;}
</style>
<path class="st0" d="M118.7,391.4v-0.8c7-90.6,39.8-158.6,96.9-201.5c56.3-43.8,117.2-64.8,183.6-64.8
	c69.5-0.8,134.4,22.6,192.2,69.5C650,239.9,679,308.7,679,397.7v5.5c0,89.9-28.9,157-87.5,203.1c-58.6,46.9-123.4,70.3-193,70.3
	h-3.1c-68-0.8-130.5-24.2-188.3-71.1C149.2,559.4,119.5,488.3,118.7,391.4L118.7,391.4z M382,268.8V145.3h-18.7
	c-3.9,4.7-7,10.2-10.2,14.9c-3.2,4.7-6.3,9.4-9.4,14.8c-3.1,4.7-7,11-9.4,15.6c-3.1,4.7-5.5,9.4-7.8,14.9
	c-4.7,7.8-8.6,15.6-11.7,22.7c-3.9,7-7,14.1-9.4,20.3c4.7,3.1,10.1,7,16.4,9.4c7,2.4,14.1,4.7,21.1,6.3c7.8,1.6,14.8,2.4,21.1,3.1
	C371,268,377.3,268.8,382,268.8L382,268.8z M414.8,145.3V268c3.9,0,8.6,0.8,13.3,0c4.7,0,10.1-0.8,14.9-1.6
	c8.6-1.6,18.8-3.9,26.6-6.3c8.6-3.1,16.4-7,21.9-11.7c-9.4-22.6-19.5-40.6-29.7-57.8s-21.9-32-34.4-44.5v-0.8H414.8L414.8,145.3z
	 M330.4,152.3v-0.8c-5.5,2.3-10.9,6.3-17.2,8.6c-5.5,2.4-12.5,5.5-18,8.6c-10.9,5.5-21.9,11.7-32.8,18.8
	c-10.2,7-20.3,14.8-28.9,22.6c3.1,3.1,7,6.3,10.2,8.6c3.1,2.3,7,5.5,10.9,8.6c3.1,1.6,7,3.9,11,7c3.9,2.3,8.6,5.5,13.3,8.6
	c6.3-14.1,12.5-28.9,20.3-42.2c7.8-14.1,16.4-27.3,25-39.1c0.8-1.6,1.6-3.1,3.1-4.7C328.1,156.2,328.9,153.9,330.4,152.3
	L330.4,152.3z M569.5,210.2v-0.8c-19.5-14.8-36.7-27.3-53.9-35.2c-17.2-7.8-34.4-15.6-50-21.9c12.5,12.5,23.4,28.1,30.5,43
	c7.8,15.6,15.6,32,21.9,47.6c3.1-1.6,7-3.1,11.7-6.3c3.9-2.3,9.4-4.7,14.1-7c4.7-3.1,8.6-6.3,13.3-9.4
	C561.8,216.4,566.5,213.3,569.5,210.2L569.5,210.2z M556.3,384.4H646c0-28.9-6.3-56.3-18-84.4c-10.9-27.4-26.6-50-46.1-69.5v-0.8
	c-3.9,6.3-9.4,11.7-14.8,15.6c-6.3,3.9-11.7,7-18,10.1c-3.9,2.3-7.8,5.5-11.7,7c-3.9,2.4-9.4,3.9-13.3,6.3
	c3.1,6.3,6.3,13.3,9.4,19.5c2.4,7,6.3,14.9,7.8,21.9c4.7,12.5,7.8,25.8,11,39.1C554.6,360.9,556.3,373.4,556.3,384.4z M273.4,268.8
	V268c-6.3-3.1-13.3-5.5-18.8-8.6c-5.5-3.9-11-7.8-15.6-10.9c-4.7-2.3-9.4-5.5-13.3-8.6c-3.9-3.1-7-6.3-10.2-9.4
	c-20.3,19.5-35.1,41.4-44.5,67.2c-10.2,25.8-17.2,54.7-20.3,86h96.1c0-21.9,3.1-43,8.6-64.1C260.3,297.6,267.3,281.3,273.4,268.8
	L273.4,268.8z M382,383.6v-89.9c-6.3,0.8-14.1,0.8-21.1,0c-7.8-0.8-15.6-3.1-22.6-5.5c-6.3-1.6-14.1-3.1-20.3-5.5
	c-7-1.6-14.1-4.7-19.5-7.8c-4.7,7.8-8.6,17.2-11.7,27.4c-3.9,9.4-6.3,19.5-8.6,28.9c-1.6,9.4-2.4,19.5-3.1,28.1
	c-0.8,8.6-1.6,17.2-1.6,24.2L382,383.6L382,383.6z M414.8,295.3v88.3h115.6c0-4.7,0-10.2-0.8-16.4c-1.6-5.5-2.3-12.5-3.1-18.8
	c-2.3-9.4-4.7-19.5-7.8-28.9c-3.1-8.6-6.3-17.2-10.1-24.2c-1.6-3.9-3.1-8.6-4.7-11.7c-2.3-3.9-4.7-6.3-6.3-8.6
	c-8.6,6.3-20.3,10.1-34.4,13.3c-13.3,3.1-28.9,6.3-43,7L414.8,295.3L414.8,295.3z M246.8,409.4h-96.1c0,13.3,2.3,28.1,6.3,46.1
	c3.9,18.8,11.7,35.9,20.3,54.7c3.9,9.4,8.6,18.8,13.3,28.1c5.5,8.6,11.7,18,18,26.6c4.7-3.1,9.4-5.5,13.3-7.8
	c4.7-2.3,10.2-5.5,14.8-7.8c5.5-2.3,11-4.7,17.2-7.8c5.5-2.4,12.5-5.5,19.5-8.6c-6.3-19.5-13.3-38.3-18-59.4
	c-5.5-20.3-8.6-40.6-8.6-63.3V409.4L246.8,409.4z M382,500.8v-91.4H273.4c0,6.3,0.8,15.6,2.4,25c0.8,9.4,3.1,19.5,4.7,29.7
	c3.1,11,5.5,21.9,8.6,31.3c3.1,9.4,6.3,17.2,9.4,24.2c14.1-5.5,28.1-9.4,37.5-11.7c10.1-3.1,19.5-5.5,28.9-6.3h8.6
	C376.5,500.8,379.6,500.8,382,500.8L382,500.8z M414.8,409.4V500c5.5,0.8,11.7,1.6,18,2.4c7,0.8,15.6,2.3,22.7,3.9l11.7,2.4
	c3.9,1.6,8.6,2.3,12.5,3.1c4.7,1.6,9.4,2.4,14.1,3.9c3.9,1.6,7.8,2.3,10.9,3.9c10.1-25.8,16.4-46.9,20.3-64.9
	c3.9-17.2,5.5-32,5.5-44.5v-0.8L414.8,409.4L414.8,409.4z M646,410.1v-0.8h-89.8v4.7c-0.8,14.9-3.1,32-6.3,50
	c-3.1,17.2-10.1,37.5-19.5,62.5c12.5,6.3,24.2,12.5,33.6,18.8c9.4,6.3,18,13.3,24.2,19.5c13.3-13.3,25-31.3,35.1-54.7
	c10.1-22.6,17.2-46.1,21.1-71.1c0.8-4.7,0.8-9.4,1.6-14.1V410.1L646,410.1z M382,647.7V525.8c-19.5,3.1-35.9,7-48.4,10.1
	s-21.9,6.3-28.1,9.4c4.7,11.7,9.4,21.9,14.1,31.3c4.7,8.6,10.1,18,14.8,25.8c1.6,3.1,4.7,6.3,7,10.2c2.3,3.1,3.9,7,6.3,10.1
	c2.3,3.9,4.7,8.6,7,13.3c3.1,3.9,5.5,8.6,8.6,11.7L382,647.7L382,647.7z M414.8,647.7h18c7-5.5,14.1-13.3,19.5-21.9
	c6.3-8.6,13.3-18.8,18-27.4c5.5-10.1,11-19.5,15.6-28.9c4.7-9.4,8.6-18,11.7-24.2c-8.6-3.1-20.3-6.3-32-9.4s-28.1-6.3-50.8-9.4
	L414.8,647.7L414.8,647.7z M569.5,583.6v-0.8c-1.6-2.4-4.7-5.5-7-7.8s-6.3-5.5-10.1-7.8c-3.1-2.3-7-4.7-11.7-7s-10.9-5.5-16.4-8.6
	c-3.1,6.3-8.6,17.2-16.4,32c-7,14.8-19.5,32.8-35.1,52.3c19.5-3.1,36.7-10.1,52.4-19.5C542.3,607.8,557,596.1,569.5,583.6
	L569.5,583.6z M278.9,558.6v-0.8c-5.5,3.1-14.1,7-22.7,10.9c-9.4,3.9-19.5,8.6-28.9,14.9c5.5,4.7,11,9.4,15.6,12.5
	c4.7,3.9,10.2,7,14.8,10.1c8.6,5.5,18.8,11,28.9,15.6c10.2,4.7,22.7,9.4,38.3,14.1c-5.5-6.3-9.4-14.1-13.3-20.3
	c-3.9-6.3-8.6-12.5-12.5-18.8c-3.9-6.3-7-13.3-10.1-19.5C285.1,571.1,282,564.9,278.9,558.6L278.9,558.6z"/>
</svg>
